<?xml version="1.0" standalone="no"?>
<!DOCTYPE svg PUBLIC "-//W3C//DTD SVG 20010904//EN"
 "http://www.w3.org/TR/2001/REC-SVG-20010904/DTD/svg10.dtd">
<svg version="1.0" xmlns="http://www.w3.org/2000/svg"
 width="1197.000000pt" height="297.000000pt" viewBox="0 0 1197.000000 297.000000"
 preserveAspectRatio="xMidYMid meet">

<g transform="translate(0.000000,297.000000) scale(0.100000,-0.100000)"
fill="#005b96" stroke="none">
<path d="M10202 2849 c-103 -17 -204 -92 -251 -185 -13 -27 -38 -145 -71 -330
-28 -159 -59 -336 -70 -394 -10 -58 -33 -184 -49 -280 -17 -96 -56 -315 -86
-486 -30 -171 -55 -319 -55 -328 0 -15 42 -16 478 -16 511 0 537 2 642 53 92
44 179 162 196 266 l7 41 -448 0 -448 0 7 48 c3 26 69 400 146 832 77 431 140
786 140 787 0 6 -86 0 -138 -8z"/>
<path d="M673 2276 c-86 -27 -168 -99 -204 -180 -10 -23 -46 -197 -79 -387
-33 -189 -76 -432 -95 -539 -85 -481 -155 -881 -155 -890 0 -6 65 -10 180 -10
178 0 180 0 185 23 2 12 23 126 45 252 22 127 43 242 46 257 l5 27 327 3 c310
3 330 5 381 26 141 57 224 154 256 300 l7 32 -451 0 c-385 0 -451 2 -451 14 0
8 16 104 35 213 20 109 46 259 60 333 60 341 85 477 91 508 l7 32 -74 -1 c-41
0 -93 -6 -116 -13z"/>
<path d="M1147 2279 c-140 -33 -242 -139 -281 -292 l-13 -52 417 -5 c389 -5
419 -6 438 -24 34 -30 35 -66 3 -243 -41 -226 -111 -629 -111 -636 0 -10 172
52 218 79 105 62 190 184 212 304 41 223 92 602 87 655 -5 73 -35 135 -81 170
-68 52 -98 55 -490 54 -199 -1 -378 -5 -399 -10z"/>
<path d="M2902 2275 c-72 -16 -199 -69 -279 -117 -80 -47 -224 -187 -279 -271
-104 -157 -138 -267 -138 -452 -1 -111 2 -141 23 -203 48 -146 151 -267 286
-333 107 -52 180 -69 295 -69 141 1 244 41 351 137 22 20 42 33 45 30 4 -3 1
-35 -5 -70 -19 -107 -36 -97 169 -97 99 0 180 2 180 5 0 3 20 117 44 253 181
1007 180 996 137 1080 -25 49 -84 99 -131 112 -55 16 -622 11 -698 -5z m385
-365 c54 -33 67 -61 60 -138 -9 -108 -46 -271 -75 -331 -15 -30 -52 -81 -82
-111 -172 -176 -463 -182 -570 -13 -42 66 -53 115 -47 205 12 173 130 322 306
384 58 21 84 24 221 24 136 0 159 -2 187 -20z"/>
<path d="M3975 2268 c-3 -13 -35 -187 -71 -388 -87 -484 -87 -579 -4 -758 95
-204 363 -327 605 -277 108 22 177 58 252 131 60 58 63 60 63 35 0 -50 -30
-142 -63 -194 -97 -152 -255 -212 -495 -188 -59 6 -124 16 -145 22 -22 6 -40
9 -41 7 -10 -14 -46 -352 -38 -360 5 -5 63 -18 128 -29 184 -31 379 -14 533
47 224 89 393 293 475 577 14 47 61 287 106 534 45 246 98 540 119 653 l37
205 -184 3 c-102 1 -186 1 -188 0 -1 -2 -28 -145 -59 -318 -31 -173 -67 -346
-81 -385 -71 -202 -264 -335 -488 -335 -83 0 -140 30 -180 93 -51 82 -48 135
28 559 36 202 66 372 66 377 0 7 -62 11 -185 11 -183 0 -185 0 -190 -22z"/>
<path d="M5709 2262 c-36 -18 -64 -43 -84 -73 -34 -49 -38 -69 -230 -1174 -14
-82 -28 -158 -31 -167 -5 -17 8 -18 179 -18 l185 0 7 43 c4 23 25 143 47 267
21 124 55 313 73 420 19 107 40 224 46 259 9 46 19 71 37 88 24 22 32 23 183
23 137 0 166 -3 215 -21 104 -39 174 -128 193 -245 10 -64 2 -136 -44 -384
-41 -227 -75 -424 -75 -437 0 -10 40 -13 179 -13 l180 0 10 53 c6 28 26 142
46 252 78 435 87 482 110 533 52 113 158 204 287 243 78 24 116 21 187 -16 86
-44 140 -122 160 -229 13 -69 15 -48 -60 -477 -32 -185 -59 -341 -59 -348 0
-8 52 -11 180 -11 178 0 180 0 185 23 3 12 23 126 46 252 22 127 49 277 61
335 28 144 34 325 15 415 -45 212 -199 373 -403 421 -106 25 -273 15 -386 -24
-100 -33 -221 -100 -284 -155 l-43 -38 -68 69 c-77 78 -178 133 -277 151 -35
6 -197 11 -387 11 l-327 0 -53 -28z"/>
<path d="M10509 2277 c-138 -39 -252 -168 -276 -314 l-6 -33 412 0 413 0 29
-29 c37 -37 37 -54 0 -262 -17 -90 -46 -258 -66 -374 -20 -115 -38 -218 -41
-227 -4 -15 6 -13 78 11 122 41 166 67 234 136 90 92 104 135 159 488 25 163
45 327 45 366 0 111 -37 177 -125 224 -39 21 -52 22 -425 24 -284 2 -397 -1
-431 -10z"/>
<path d="M8885 2269 c-345 -33 -667 -290 -771 -614 -33 -106 -42 -243 -20
-343 47 -224 227 -399 458 -448 101 -22 295 -14 398 16 280 80 519 302 614
568 28 80 30 97 31 222 0 116 -3 145 -23 202 -95 273 -363 428 -687 397z m172
-384 c68 -31 96 -55 129 -110 75 -128 40 -307 -85 -435 -163 -166 -429 -185
-569 -40 -82 84 -96 232 -34 361 57 119 187 223 312 249 76 15 182 5 247 -25z"/>
<path d="M11480 1028 c0 -5 9 -8 20 -8 30 0 34 -22 20 -106 -11 -70 -9 -96 6
-81 3 3 11 41 16 84 12 88 20 103 54 103 13 0 24 3 24 8 0 4 -32 7 -70 7 -39
0 -70 -3 -70 -7z"/>
<path d="M11661 977 c-22 -130 -24 -147 -13 -147 12 0 19 26 28 103 8 64 20
81 28 40 23 -122 28 -143 34 -143 4 0 27 39 50 86 24 48 45 84 48 81 3 -3 1
-37 -5 -76 -13 -85 -13 -91 -2 -91 8 0 18 43 37 167 6 40 5 42 -16 38 -27 -5
-20 5 -61 -82 -18 -40 -37 -73 -40 -73 -4 0 -13 26 -19 58 -6 31 -13 66 -15
77 -2 12 -13 21 -24 22 -16 1 -21 -8 -30 -60z"/>
</g>
</svg>
